<svg width="0" height="0" xmlns="http://www.w3.org/2000/svg">
<symbol id="dribbleIcon" viewBox="0 0 24 24" class="footer__social-icon"><g clip-path="url(#a)"><path fill="currentColor" d="M12 .57a11.43 11.43 0 1 0 0 22.86A11.43 11.43 0 0 0 12 .57Zm0 1.66c2.49 0 4.76.93 6.49 2.46-1.27 1.67-3.2 2.79-5.13 3.54A50.9 50.9 0 0 0 9.7 2.5a9.79 9.79 0 0 1 2.3-.27Zm-4.16.92c1.28 1.9 2.51 3.68 3.64 5.68a37.6 37.6 0 0 1-9.05 1.19 9.8 9.8 0 0 1 5.41-6.87Zm11.73 2.67a9.73 9.73 0 0 1 2.2 6.12c-2.26-.45-4.5-.57-6.8-.34-.25-.64-.56-1.25-.86-1.9a13.9 13.9 0 0 0 5.46-3.88Zm-7.3 4.52.8 1.64c-3.19 1.4-6.57 3.27-8.33 6.56a9.74 9.74 0 0 1-2.5-6.83c3.4-.01 6.75-.44 10.03-1.37ZM17.44 13c1.42 0 2.83.19 4.21.55a9.77 9.77 0 0 1-4.2 6.56c-.52-2.38-1.02-4.67-1.9-6.97.62-.1 1.25-.14 1.89-.14Zm4.26.18-.02.17.02-.17Zm-7.96.4c.9 2.33 1.6 4.91 2.08 7.42A9.74 9.74 0 0 1 6 19.72a14.53 14.53 0 0 1 7.74-6.13Z"/></g><defs><clipPath id="a"><path fill="#fff" d="M0 0h24v24H0z"/></clipPath></defs></symbol>
</svg>
