<svg width="0" height="0" xmlns="http://www.w3.org/2000/svg">
<symbol id="instagramIcon" viewBox="0 0 19 19" class="footer__social-icon"><path fill="currentColor" d="M9 18.04c-2.46 0-2.75-.01-3.7-.05a6.58 6.58 0 0 1-2.2-.45A4.62 4.62 0 0 1 .49 14.9a6.6 6.6 0 0 1-.42-2.18C0 11.76 0 11.45 0 9c0-2.46.01-2.75.06-3.7C.07 4.54.2 3.8.48 3.1A4.61 4.61 0 0 1 3.1.48c.7-.26 1.44-.4 2.18-.42C6.25 0 6.56 0 9 0c2.48 0 2.77.02 3.71.06.75.01 1.5.15 2.2.42a4.62 4.62 0 0 1 2.63 2.63c.26.71.4 1.46.42 2.22.05.96.05 1.27.05 3.7 0 2.45-.01 2.77-.05 3.72a6.6 6.6 0 0 1-.42 2.18 4.63 4.63 0 0 1-2.64 2.64c-.7.26-1.44.4-2.18.42-.96.05-1.27.05-3.72.05ZM8.97 1.6c-2.45 0-2.7.01-3.66.05-.57.01-1.13.12-1.67.31a2.99 2.99 0 0 0-1.72 1.72 5 5 0 0 0-.3 1.68c-.06.97-.06 1.23-.06 3.65 0 2.4.01 2.7.05 3.66.01.57.12 1.13.31 1.67a3 3 0 0 0 1.72 1.71c.54.2 1.1.3 1.67.31.97.06 1.23.06 3.66.06 2.45 0 2.7-.02 3.65-.06.57 0 1.14-.11 1.67-.31a3 3 0 0 0 1.71-1.7c.2-.55.3-1.12.31-1.7h.01c.05-.95.05-1.2.05-3.65 0-2.44-.01-2.7-.06-3.66 0-.57-.11-1.13-.3-1.66a3 3 0 0 0-1.72-1.72c-.53-.2-1.1-.3-1.67-.3-.96-.06-1.22-.06-3.65-.06ZM9 13.62a4.62 4.62 0 1 1 0-9.24 4.62 4.62 0 0 1 0 9.24ZM9 6a3 3 0 1 0 0 6 3 3 0 0 0 0-6Zm4.8-.72a1.08 1.08 0 1 1 .01-2.15 1.08 1.08 0 0 1 0 2.15Z"/></symbol>
</svg>
