<svg width="0" height="0" xmlns="http://www.w3.org/2000/svg">
<symbol id="pinterestIcon" viewBox="0 0 16 20" class="footer__social-icon"><path fill="currentColor" d="M6.67 13.1c-.5 2.72-1.12 5.34-2.95 6.7-.56-4.12.83-7.21 1.48-10.5-1.1-1.9.13-5.75 2.45-4.8 2.86 1.16-2.47 7.1 1.1 7.84 3.75.77 5.28-6.68 2.96-9.11-3.35-3.5-9.76-.08-8.97 4.93.19 1.23 1.42 1.6.49 3.3C1.08 10.95.44 9.21.53 6.9.66 3.1 3.84.44 7.03.07c4.05-.47 7.84 1.52 8.36 5.44.6 4.41-1.82 9.2-6.14 8.85-1.17-.1-1.66-.69-2.58-1.26Z"/></symbol>
</svg>
