<svg width="0" height="0" xmlns="http://www.w3.org/2000/svg">
<symbol id="twitterIcon" viewBox="0 0 20 16" class="footer__social-icon"><path fill="currentColor" d="M17.63 4c.02.17.02.35.02.52 0 5.33-4.06 11.46-11.46 11.46-2.29 0-4.4-.66-6.19-1.8a8.07 8.07 0 0 0 5.97-1.67 4.04 4.04 0 0 1-3.76-2.8 4.29 4.29 0 0 0 1.82-.08A4.03 4.03 0 0 1 .8 5.68v-.05c.54.3 1.16.49 1.82.51A4.02 4.02 0 0 1 1.37.76a11.46 11.46 0 0 0 8.3 4.21 4.03 4.03 0 0 1 6.87-3.68c.91-.17 1.77-.5 2.56-.97-.3.93-.93 1.72-1.77 2.22.8-.1 1.58-.3 2.32-.63-.55.8-1.23 1.51-2.02 2.09Z"/></symbol>
</svg>
