<svg width="0" height="0"  fill="none" xmlns="http://www.w3.org/2000/svg">
<svg id="youtubeIcon" viewBox="0 0 22 15" class="footer__social-icon"><path fill="currentColor" d="M11 14.01H11c-.07 0-6.27-.01-7.83-.44a2.5 2.5 0 0 1-1.77-1.76A26.5 26.5 0 0 1 1 7c-.01-1.61.13-3.23.41-4.82A2.56 2.56 0 0 1 3.17.4c1.52-.4 7.55-.4 7.8-.4H11c.06 0 6.28.01 7.83.44.86.23 1.53.9 1.76 1.76.3 1.6.43 3.21.41 4.83 0 1.61-.13 3.22-.42 4.81a2.51 2.51 0 0 1-1.76 1.77c-1.52.4-7.56.4-7.81.4Zm-2-10v6l5.21-3-5.2-3Z"/></svg>
</svg>
