<svg width="" height="0" xmlns="http://www.w3.org/2000/svg">
<symbol id="instagramIcon" viewBox="0 0 32 32" class="team-icon"><path fill="currentColor" d="M16 31.82c-4.3 0-4.8-.02-6.49-.1-1.3-.04-2.6-.3-3.82-.78a8.08 8.08 0 0 1-4.6-4.6C.61 25.1.37 23.8.34 22.5c-.1-1.68-.1-2.23-.1-6.5 0-4.32.03-4.82.1-6.5.03-1.3.28-2.6.73-3.82A8.07 8.07 0 0 1 5.7 1.1C6.92.63 8.21.38 9.51.35c1.68-.1 2.23-.1 6.5-.1 4.33 0 4.83.03 6.49.1 1.3.03 2.6.28 3.83.74a8.08 8.08 0 0 1 4.6 4.6c.47 1.25.72 2.56.74 3.88.1 1.68.1 2.23.1 6.5s-.02 4.83-.1 6.49c-.02 1.3-.27 2.6-.73 3.83a8.1 8.1 0 0 1-4.61 4.6c-1.23.46-2.52.7-3.83.74-1.67.1-2.22.1-6.5.1Zm-.06-28.8c-4.28 0-4.72.03-6.4.1-.99.02-1.98.2-2.91.55a5.23 5.23 0 0 0-3.01 3 8.76 8.76 0 0 0-.55 2.95c-.09 1.7-.09 2.14-.09 6.39 0 4.2.02 4.7.1 6.4.01 1 .2 1.98.54 2.92a5.24 5.24 0 0 0 3 2.99c.94.35 1.93.53 2.93.54 1.7.1 2.14.1 6.4.1 4.29 0 4.73-.02 6.39-.1 1 0 1.99-.2 2.92-.54a5.25 5.25 0 0 0 3-3c.34-.94.53-1.94.54-2.94h.02c.07-1.68.07-2.12.07-6.4 0-4.27-.02-4.72-.1-6.4 0-1-.2-1.98-.54-2.91a5.25 5.25 0 0 0-2.99-3 8.65 8.65 0 0 0-2.92-.54c-1.7-.1-2.14-.1-6.4-.1ZM16 24.1a8.09 8.09 0 1 1 0-16.18 8.09 8.09 0 0 1 0 16.18Zm0-13.34a5.25 5.25 0 1 0 0 10.5 5.25 5.25 0 0 0 0-10.5Zm8.4-1.25a1.89 1.89 0 1 1 .02-3.77 1.89 1.89 0 0 1-.02 3.77Z"/></symbol>
</svg>
