<svg width="0" height="0" xmlns="http://www.w3.org/2000/svg">
<symbol id="pinterestIcon" viewbox="0 0 28 36" class="team__icon"><path fill="currentColor" d="M11.67 23.42c-.88 4.77-1.96 9.34-5.16 11.73-.99-7.2 1.45-12.62 2.58-18.37-1.93-3.34.23-10.07 4.3-8.42 5 2.04-4.33 12.43 1.94 13.73 6.54 1.36 9.22-11.7 5.16-15.94C14.62.02 3.4 6.01 4.79 14.8c.34 2.14 2.49 2.8.86 5.75-3.75-.86-4.87-3.9-4.73-7.97.23-6.65 5.8-11.3 11.4-11.95 7.07-.82 13.7 2.67 14.62 9.52 1.03 7.73-3.2 16.1-10.75 15.5-2.05-.17-2.91-1.21-4.52-2.22Z"/></symbol>
</svg>
