<svg width="0" height="0" xmlns="http://www.w3.org/2000/svg">
<symbol id="twitterIcon" viewbox="0 0 38 30" class="team__icon"><path fill="currentColor" d="M33 4.7A7.53 7.53 0 0 0 36.3.55c-1.48.87-3.1 1.49-4.78 1.82a7.53 7.53 0 0 0-12.8 6.85A21.32 21.32 0 0 1 3.24 1.38 7.53 7.53 0 0 0 5.57 11.4a7.48 7.48 0 0 1-3.4-.94v.1a7.51 7.51 0 0 0 6.02 7.36c-1.1.3-2.26.35-3.39.13a7.53 7.53 0 0 0 7.02 5.21A15.07 15.07 0 0 1 .7 26.38a21.26 21.26 0 0 0 11.51 3.37A21.22 21.22 0 0 0 33.55 7.41a15.26 15.26 0 0 0 3.75-3.89c-1.37.6-2.82 1-4.3 1.18Z"/></symbol>
</svg>
